<svg xmlns="http://www.w3.org/2000/svg" width="450" height="228" viewBox="0 0 450 228" font-family="Segoe UI, Arial, sans-serif" font-size="12">
<rect width="450" height="228" fill="#ffffff"/>
<rect x="185" y="28" width="80" height="87" fill="#c9ced6" stroke="#7b8494"/>
<rect x="191" y="34" width="68" height="75" fill="#ffffff" stroke="#7b8494"/>
<rect x="218" y="115" width="14" height="78" fill="#c9ced6" stroke="#7b8494"/>
<rect x="185" y="193" width="80" height="10" fill="#c9ced6" stroke="#7b8494"/>
<text x="225" y="76" fill="#555" text-anchor="middle" font-size="11">section</text>
<line x1="10" y1="190" x2="440" y2="190" stroke="#999" stroke-width="1" stroke-dasharray="4 3"/>
<rect x="20" y="182" width="180" height="8" fill="#2f6fd0" stroke="none"/>
<rect x="192" y="128" width="8" height="62" fill="#2f6fd0" stroke="none"/>
<line x1="200" y1="190" x2="200" y2="137" stroke="#d62828" stroke-width="2.5"/>
<polygon points="200,128 194.5,139 205.5,139" fill="#d62828"/>
<circle cx="200" cy="190" r="4" fill="#d62828"/>
<rect x="250" y="182" width="180" height="8" fill="#2f6fd0" stroke="none"/>
<rect x="250" y="128" width="8" height="62" fill="#2f6fd0" stroke="none"/>
<line x1="250" y1="190" x2="250" y2="137" stroke="#d62828" stroke-width="2.5"/>
<polygon points="250,128 244.5,139 255.5,139" fill="#d62828"/>
<circle cx="250" cy="190" r="4" fill="#d62828"/>
<text x="184" y="150" fill="#d62828" text-anchor="end" font-size="12" font-weight="bold">S_Center1</text>
<text x="266" y="150" fill="#d62828" text-anchor="start" font-size="12" font-weight="bold">S_Center1</text>
</svg>
